<?xml version="1.0" encoding="UTF-8"?>
<svg version="1.1" xmlns="http://www.w3.org/2000/svg" width="512" height="512">
<path d="M0 0 C1.88901535 -0.00855011 1.88901535 -0.00855011 3.81619263 -0.01727295 C6.48068844 -0.02670261 9.14507228 -0.03360897 11.80957031 -0.03710938 C14.50730073 -0.04147189 17.20470734 -0.05528387 19.90234375 -0.078125 C34.56967839 -0.19327581 48.69433837 -0.28822827 63.0078125 3.203125 C63.86213867 3.39664551 64.71646484 3.59016602 65.59667969 3.78955078 C103.42186335 12.89053997 135.43545195 37.96355511 156.1328125 70.453125 C167.25502883 89.17701742 174.4488526 109.53661954 177.0078125 131.203125 C177.09434082 131.9338623 177.18086914 132.66459961 177.27001953 133.41748047 C178.89095888 148.71980288 177.26808256 163.86812808 175.796875 179.11328125 C175.69688705 180.15873611 175.69688705 180.15873611 175.59487915 181.22531128 C175.28699112 184.42046059 174.9618953 187.61183247 174.60351562 190.80175781 C174.49201172 191.8687793 174.38050781 192.93580078 174.265625 194.03515625 C174.10924561 195.41344604 174.10924561 195.41344604 173.94970703 196.81958008 C174.0344098 200.294173 175.47417975 201.91122321 177.67041016 204.48095703 C183.23175018 211.64227367 182.47397457 221.90365369 182.39892578 230.50732422 C182.38283891 232.69952607 182.39884692 234.88988509 182.41796875 237.08203125 C182.43858651 250.14546161 180.45729428 259.66279588 171.0859375 269.1484375 C166.99621237 272.93698132 163.25942502 275.3431789 158.0078125 277.203125 C158.24564453 278.67845703 158.24564453 278.67845703 158.48828125 280.18359375 C160.35921895 293.40643766 159.87301051 304.89493646 151.6953125 315.890625 C149.35972857 318.79746647 146.93886948 321.08975923 144.0703125 323.453125 C141.59981465 325.79791168 141.04715359 326.79987881 140.7109375 330.24609375 C140.77877543 333.61083005 140.77877543 333.61083005 141.15234375 336.82421875 C140.82204716 344.54601734 136.01666384 349.84260401 130.6953125 355.015625 C130.15197266 355.57443359 129.60863281 356.13324219 129.04882812 356.70898438 C123.9872497 361.72275568 118.91554916 364.62971083 111.5703125 364.640625 C106.29369741 364.46690928 102.2085918 363.47992336 98.0078125 360.203125 C93.55043631 355.3122384 91.85813358 351.03689673 91.7578125 344.390625 C91.71914063 342.86501953 91.71914063 342.86501953 91.6796875 341.30859375 C92.44193961 334.09442202 96.88387317 329.8590215 101.8203125 325.015625 C102.42423828 324.40009766 103.02816406 323.78457031 103.65039062 323.15039062 C107.14077 319.68255406 110.28601026 316.87000794 115.0078125 315.203125 C118.33984375 315.2265625 118.33984375 315.2265625 121.8203125 315.578125 C125.93601742 315.673738 128.25133315 315.67045639 131.77734375 313.4921875 C134.14134722 311.19483089 136.09299775 308.88386566 138.0078125 306.203125 C138.48089844 305.55730469 138.95398438 304.91148437 139.44140625 304.24609375 C142.8286245 298.67886653 142.78136776 292.53383011 142.0078125 286.203125 C140.67795681 282.6983485 140.67795681 282.6983485 139.0078125 280.203125 C139.0078125 279.543125 139.0078125 278.883125 139.0078125 278.203125 C133.7278125 278.203125 128.4478125 278.203125 123.0078125 278.203125 C122.3478125 280.183125 121.6878125 282.163125 121.0078125 284.203125 C117.35813176 291.72984364 111.69598106 300.35904072 104.0078125 304.203125 C101.02241486 304.33580934 98.5177325 304.35374493 95.640625 303.50390625 C92.04074626 303.09264414 90.63058767 304.21745522 87.6953125 306.265625 C86.81230469 306.85472656 85.92929687 307.44382812 85.01953125 308.05078125 C82.67067465 310.06932387 82.67067465 310.06932387 83.02734375 313.13671875 C83.0078125 316.203125 83.0078125 316.203125 81.01171875 318.81640625 C77.50698968 321.60104794 73.9794645 323.4937231 69.9453125 325.390625 C69.23826172 325.73287109 68.53121094 326.07511719 67.80273438 326.42773438 C66.4562585 327.07884712 65.10789737 327.72608152 63.75732422 328.36865234 C61.82815984 329.28881476 59.91454673 330.2373765 58.0078125 331.203125 C57.57145558 344.229187 57.73641883 355.96513923 67.0078125 366.203125 C72.71805499 370.81195367 79.49041317 373.27167187 86.26293945 375.89233398 C113.2403551 386.43869778 133.34906658 406.82407922 145.13964844 433.13720703 C147.59652734 438.98369446 149.5573195 445.02973677 151.0078125 451.203125 C151.19327637 451.97720703 151.37874023 452.75128906 151.56982422 453.54882812 C153.54692844 463.30559936 153.38000171 473.20209902 153.37841797 483.11474609 C153.38284244 486.22416963 153.41940643 489.33222803 153.45703125 492.44140625 C153.46289133 494.42447436 153.46686613 496.40754913 153.46875 498.390625 C153.48312103 499.31665527 153.49749207 500.24268555 153.51229858 501.19677734 C153.50614532 502.05867676 153.49999207 502.92057617 153.49365234 503.80859375 C153.49650238 504.56293701 153.49935242 505.31728027 153.50228882 506.09448242 C152.74687809 509.3158525 151.71210726 510.24627717 149.0078125 512.203125 C145.51059405 512.81988009 142.03654269 512.74650763 138.49328613 512.7177887 C137.41054932 512.72473422 136.32781251 512.73167975 135.21226549 512.73883575 C131.57164145 512.75718259 127.93166338 512.74681968 124.29101562 512.73657227 C121.68610647 512.74362678 119.08120141 512.75236981 116.4763031 512.76268005 C110.12804955 512.78433812 103.77997514 512.78418868 97.43169677 512.77605451 C92.27305549 512.7697586 87.11446652 512.77088777 81.95582581 512.77732658 C81.22205193 512.77822824 80.48827805 512.77912989 79.7322686 512.78005887 C78.24169265 512.78191004 76.75111671 512.7837726 75.26054078 512.78564643 C61.27834029 512.80223101 47.29624065 512.79349993 33.3140462 512.77666085 C20.51642533 512.76196133 7.71903917 512.77659457 -5.07855147 512.80543102 C-18.21398722 512.83480872 -31.34931457 512.8458022 -44.48478174 512.83624882 C-45.96992141 512.83522624 -47.4550611 512.83423164 -48.94020081 512.8332653 C-49.67094723 512.83278891 -50.40169365 512.83231252 -51.1545839 512.8318217 C-56.30796723 512.82965551 -61.46124816 512.83947238 -66.61460876 512.85403633 C-73.54874288 512.8733593 -80.48243251 512.86650736 -87.41654778 512.84183693 C-89.96593441 512.83681035 -92.51535407 512.84036624 -95.06471443 512.85298538 C-98.53620665 512.86881369 -102.00623913 512.85405979 -105.47766113 512.83131409 C-107.00274331 512.84906768 -107.00274331 512.84906768 -108.55863523 512.86717993 C-115.36769202 512.77609377 -115.36769202 512.77609377 -118.61802006 509.79394817 C-119.9600958 507.26362994 -120.49321013 505.87401497 -120.49389648 503.04980469 C-120.50327744 502.26418152 -120.51265839 501.47855835 -120.52232361 500.66912842 C-120.50547264 499.40978485 -120.50547264 499.40978485 -120.48828125 498.125 C-120.48973648 497.2401593 -120.49119171 496.3553186 -120.49269104 495.44366455 C-120.4910329 493.56755286 -120.47948104 491.69142746 -120.45874023 489.81542969 C-120.43020324 487.00393659 -120.43804989 484.19438307 -120.45117188 481.3828125 C-120.42004661 454.55506109 -114.0559745 429.50838869 -96.9921875 408.203125 C-96.30769531 407.33042969 -95.62320313 406.45773437 -94.91796875 405.55859375 C-89.94002923 399.53765737 -89.94002923 399.53765737 -85.8046875 398.078125 C-82.9921875 398.203125 -82.9921875 398.203125 -80.61328125 398.89453125 C-77.12785828 399.30488656 -75.99243154 398.37445306 -73.2421875 396.265625 C-70.05355743 393.69379551 -70.05355743 393.69379551 -68.3671875 390.09375 C-68.3259375 389.40796875 -68.2846875 388.7221875 -68.2421875 388.015625 C-67.9921875 384.203125 -67.9921875 384.203125 -66.1171875 382.015625 C-60.60496263 378.81853457 -54.81713074 376.31317826 -48.890625 373.984375 C-39.22833547 370.16838217 -31.44193948 366.01672529 -26.9921875 356.203125 C-25.00967986 350.52465668 -24.58428996 345.21332794 -24.3671875 339.265625 C-24.32851562 338.39099609 -24.28984375 337.51636719 -24.25 336.61523438 C-24.1565768 334.47817869 -24.07333352 332.34068206 -23.9921875 330.203125 C-25.09445679 330.0165332 -25.09445679 330.0165332 -26.21899414 329.82617188 C-28.87155016 329.23022831 -30.93446128 328.43240148 -33.36328125 327.234375 C-34.17788818 326.83283203 -34.99249512 326.43128906 -35.83178711 326.01757812 C-36.68909424 325.58380859 -37.54640137 325.15003906 -38.4296875 324.703125 C-39.31986572 324.25388672 -40.21004395 323.80464844 -41.12719727 323.34179688 C-58.46818178 314.45170946 -78.4252244 302.98779455 -87.21484375 284.9140625 C-87.73957275 283.8420459 -88.26430176 282.7700293 -88.80493164 281.66552734 C-89.19672607 280.85293457 -89.58852051 280.0403418 -89.9921875 279.203125 C-91.31440308 279.18910645 -91.31440308 279.18910645 -92.66333008 279.17480469 C-95.98699355 279.13034679 -99.30945285 279.06854182 -102.63256836 278.99560547 C-104.06083736 278.96767259 -105.489253 278.94632285 -106.91772461 278.93212891 C-119.82550789 278.79630516 -130.13068817 277.10295875 -139.7578125 267.84375 C-148.22448575 257.83768162 -149.19746306 247.67063495 -149.23242188 235.13061523 C-149.24207893 233.03913854 -149.27311782 230.94866648 -149.3046875 228.85742188 C-149.38326891 219.37097784 -148.96765851 211.16585492 -143.265625 203.3203125 C-139.83831869 198.19606533 -140.86250034 193.19709989 -141.6171875 187.328125 C-141.72675781 186.30332031 -141.83632812 185.27851563 -141.94921875 184.22265625 C-142.36166143 180.40392228 -142.81870511 176.59154377 -143.29492188 172.78027344 C-145.44795141 153.99234057 -145.84624244 132.56392581 -140.9921875 114.203125 C-140.79351074 113.44999023 -140.59483398 112.69685547 -140.39013672 111.92089844 C-129.71505635 72.91487445 -105.47153754 39.80128989 -70.44726562 19.24023438 C-48.71771912 6.90623683 -24.99485853 0.08844028 0 0 Z M-53.9921875 29.203125 C-55.13300781 29.76 -56.27382812 30.316875 -57.44921875 30.890625 C-69.30777615 36.96760815 -79.32985145 45.10044725 -88.9921875 54.203125 C-89.65605469 54.80253906 -90.31992188 55.40195312 -91.00390625 56.01953125 C-108.37055928 72.32938998 -118.64374099 94.61694872 -124.9921875 117.203125 C-125.353125 118.45480469 -125.7140625 119.70648438 -126.0859375 120.99609375 C-131.20633227 142.73406601 -128.31750449 167.43232186 -124.9921875 189.203125 C-123.3421875 188.873125 -121.6921875 188.543125 -119.9921875 188.203125 C-119.99884933 187.62922028 -120.00551117 187.05531555 -120.01237488 186.46401978 C-120.07965848 180.39501655 -120.12436588 174.32612213 -120.15698242 168.25683594 C-120.17190603 166.00321131 -120.19225221 163.74961487 -120.21850586 161.49609375 C-120.61873042 126.21355216 -112.96994637 94.18686617 -87.8203125 68.07421875 C-86.87893878 67.11587469 -85.93627367 66.15879708 -84.9921875 65.203125 C-84.16203125 64.34847656 -83.331875 63.49382813 -82.4765625 62.61328125 C-59.96174118 40.75456668 -29.7805205 32.11217304 0.90625 32 C2.75061142 31.99144989 2.75061142 31.99144989 4.63223267 31.98272705 C7.22925975 31.97331359 9.82629858 31.96675767 12.42333984 31.96289062 C16.33583288 31.95324087 20.24778743 31.92220422 24.16015625 31.890625 C61.60711225 31.73056343 93.02913634 40.37451309 120.2578125 67.015625 C132.5609623 79.43802717 141.64434575 94.56474978 147.3203125 111.078125 C147.66582153 112.06462036 147.66582153 112.06462036 148.01831055 113.07104492 C153.40774339 129.77334231 153.38858241 146.3871346 153.1953125 163.765625 C153.18022845 166.14517376 153.16654668 168.52473184 153.15429688 170.90429688 C153.12160953 176.67078005 153.07170932 182.43690749 153.0078125 188.203125 C154.6578125 188.533125 156.3078125 188.863125 158.0078125 189.203125 C165.23730464 145.51853418 161.56016337 105.6446172 135.3203125 68.8359375 C125.52867982 55.96331695 113.65240824 44.85181897 100.0078125 36.203125 C98.90050781 35.49671875 97.79320312 34.7903125 96.65234375 34.0625 C53.89471467 8.27999409 -9.59337703 7.1772929 -53.9921875 29.203125 Z " fill="#010101" transform="translate(277.9921875,-0.203125)"/>
<path d="M0 0 C3.22508165 3.13580603 6.11984792 6.32317744 8.875 9.875 C21.66225099 25.58384144 45.06652246 50.7175574 66.4375 53.4375 C70.07464531 53.29147637 70.07464531 53.29147637 72.671875 50.9921875 C75.68496199 47.11966294 75.77413074 44.45807859 75.8125 39.6875 C75.83763672 38.94693359 75.86277344 38.20636719 75.88867188 37.44335938 C75.94718443 35.62947031 75.97654349 33.81468097 76 32 C79.99642561 33.44193378 83.31397197 35.38143986 86.875 37.6875 C106.40363858 49.93631476 126.23282613 54.57629052 149 57 C157.54393835 82.63181506 155.33772261 122.7180168 143.84375 147.4921875 C141.61908761 151.35528367 138.94225223 153.9779341 135.625 156.9375 C132.66188117 159.69875889 132.66188117 159.69875889 131.7109375 163.50390625 C131.97164473 165.75514841 132.35678861 167.82916155 133 170 C131.26041859 171.20271059 129.50790255 172.3867301 127.75 173.5625 C126.77546875 174.22378906 125.8009375 174.88507813 124.796875 175.56640625 C122 177 122 177 119.703125 176.77734375 C118 176 118 176 117 175 C110.65755078 174.48929136 106.91581648 175.5490288 101.4375 178.625 C100.04160678 179.36549329 98.64309721 180.10107284 97.2421875 180.83203125 C96.53932617 181.19893066 95.83646484 181.56583008 95.11230469 181.94384766 C89.58685548 184.70657226 83.78042423 186.83827042 78 189 C77.15824219 189.31839844 76.31648438 189.63679687 75.44921875 189.96484375 C54.31934576 197.50854618 35.6574175 192.20972179 16.01513672 183.07714844 C2.31354835 176.56268103 -11.03039952 169.38357568 -23 160 C-24.22203125 159.07960938 -24.22203125 159.07960938 -25.46875 158.140625 C-35.11848679 150.35650399 -38.61211135 139.83636892 -41 128 C-41.17200928 127.32960693 -41.34401855 126.65921387 -41.52124023 125.96850586 C-42.22782601 121.58738578 -42.18277737 117.24379338 -42.203125 112.8125 C-42.21000336 111.80962952 -42.21688171 110.80675903 -42.22396851 109.77349854 C-42.24120309 106.51562907 -42.24743584 103.25791277 -42.25 100 C-42.25167175 98.89474976 -42.25334351 97.78949951 -42.25506592 96.65075684 C-42.2565521 80.29384954 -41.81602746 64.19551213 -39.42285156 47.98706055 C-39.11730003 45.82861773 -38.87146207 43.66143584 -38.66308594 41.49145508 C-37.68296555 32.64028021 -37.68296555 32.64028021 -34.3125 29.48046875 C-33.219375 29.05378906 -32.12625 28.62710938 -31 28.1875 C-24.4094711 25.24140264 -19.38328152 21.78302181 -14 17 C-13.36449219 16.43539062 -12.72898438 15.87078125 -12.07421875 15.2890625 C-7.26916827 10.75036737 -3.63754135 5.49500927 0 0 Z " fill="#F8C3A9" transform="translate(240,132)"/>
<path d="M0 0 C0.70242136 -0.00282738 1.40484272 -0.00565475 2.12854958 -0.00856781 C5.84701526 -0.02347477 9.565443 -0.03275742 13.28393555 -0.03710938 C17.08153414 -0.04257777 20.87877133 -0.06659567 24.67625713 -0.09508133 C27.63549244 -0.11390091 30.59464406 -0.11892347 33.5539341 -0.12044525 C34.95188176 -0.1234296 36.34982951 -0.1313109 37.7477169 -0.14463043 C50.70772719 -0.25929717 62.76503575 1.60663611 74.67578125 6.828125 C75.47765869 7.17512451 76.27953613 7.52212402 77.10571289 7.87963867 C102.92935469 19.40515401 122.9673672 40.788475 133.17578125 67.203125 C136.89642058 78.61192383 138.32942868 89.31440295 138.2734375 101.26171875 C138.27131508 102.97815331 138.27131508 102.97815331 138.26914978 104.72926331 C138.26357426 108.36641101 138.25102623 112.00349605 138.23828125 115.640625 C138.23326309 118.1139314 138.22870073 120.58723877 138.22460938 123.06054688 C138.21361284 129.10809688 138.19636506 135.15560033 138.17578125 141.203125 C134.21578125 141.203125 130.25578125 141.203125 126.17578125 141.203125 C125.75260417 138.69661458 125.32942708 136.19010417 124.90625 133.68359375 C124.09043335 130.91330726 123.39458749 129.99457486 121.17578125 128.203125 C118.2284224 127.89505935 115.43972238 127.74378246 112.48828125 127.703125 C87.46107273 126.83741143 62.53468707 118.78998379 44.05078125 101.265625 C40.7459123 98.89474075 38.37305339 98.3353466 34.421875 97.7578125 C30.79195555 98.47748349 29.42146406 100.3405377 27.17578125 103.203125 C26.37419345 105.87602517 25.82161567 108.16992312 25.42578125 110.890625 C24.23123774 118.09221202 24.23123774 118.09221202 23.17578125 120.203125 C18.84511333 118.70560432 15.30249832 116.42600948 11.61328125 113.765625 C11.00339355 113.32750488 10.39350586 112.88938477 9.76513672 112.43798828 C3.4566035 107.8150035 -2.19921912 102.62223153 -7.82421875 97.203125 C-8.52933594 96.56117188 -9.23445313 95.91921875 -9.9609375 95.2578125 C-16.07675577 89.52655886 -20.75140581 82.71592312 -25.59814453 75.92089844 C-29.48491772 69.74772815 -29.48491772 69.74772815 -34.82421875 65.203125 C-38.43778235 64.80161793 -40.24313028 64.82209829 -43.3203125 66.83984375 C-46.13089218 69.49257496 -47.41508722 71.85065236 -49.07421875 75.328125 C-56.43488692 89.5396315 -67.5455924 98.02802212 -81.78515625 104.52734375 C-84.95557582 106.27555711 -86.23320391 106.99492731 -87.82421875 110.203125 C-88.58703875 113.38562229 -89.02887345 116.58477884 -89.44921875 119.828125 C-89.57039062 120.68019531 -89.6915625 121.53226562 -89.81640625 122.41015625 C-90.55131417 127.69030992 -91.11197978 132.97032781 -91.55615234 138.28271484 C-91.82421875 140.203125 -91.82421875 140.203125 -92.82421875 141.203125 C-94.84386074 141.27556553 -96.86588999 141.28689688 -98.88671875 141.265625 C-99.99144531 141.25660156 -101.09617188 141.24757812 -102.234375 141.23828125 C-103.51634766 141.22087891 -103.51634766 141.22087891 -104.82421875 141.203125 C-104.8753611 134.17801052 -104.91013609 127.1529449 -104.93408203 120.12768555 C-104.94407572 117.74290167 -104.95767519 115.35812985 -104.97509766 112.97338867 C-104.99963994 109.52519741 -105.01076851 106.0771696 -105.01953125 102.62890625 C-105.02985382 101.58044022 -105.04017639 100.53197418 -105.05081177 99.45173645 C-105.05493942 71.57892263 -93.46564686 48.28863116 -74.51171875 28.453125 C-53.72439562 8.39364932 -28.41783303 0.07795307 0 0 Z " fill="#BB5A56" transform="translate(277.82421875,46.796875)"/>
<path d="M0 0 C2 2.1875 2 2.1875 4 5 C13.32185971 16.90353562 27.21087903 24.21090508 42 27 C60.40727013 29.02307397 76.79043625 24.39777859 91.52734375 13.0546875 C96.45409343 8.87391822 100.33547688 4.30123101 104 -1 C110.13546491 0.14928429 115.61590588 1.81491913 121.25 4.5 C121.98089844 4.84748291 122.71179688 5.19496582 123.46484375 5.55297852 C145.52594945 16.46562188 158.20739132 34.93539133 168.23046875 56.66796875 C169 59 169 59 169 64 C163.06 64 157.12 64 151 64 C150.83723958 61.49348958 150.67447917 58.98697917 150.51171875 56.48046875 C149.92578626 53.64026162 149.34066384 52.67502051 147 51 C143.5 50.5 143.5 50.5 140 51 C126.29679681 64.70320319 136.35229188 89.62394658 136 109 C80.23 109 24.46 109 -33 109 C-33.33 92.5 -33.66 76 -34 59 C-36.711757 55.66049055 -36.711757 55.66049055 -40.5 55.625 C-43.87216494 55.72550671 -43.87216494 55.72550671 -45.875 57.1875 C-47.3784446 59.37341703 -47.3784446 59.37341703 -48 64 C-53.94 64 -59.88 64 -66 64 C-63.78886166 48.52203162 -55.71517985 36.89863877 -45.9375 25.0625 C-43.71797773 22.27019779 -43.04145947 21.31390745 -42.5625 17.6875 C-42.706875 16.800625 -42.85125 15.91375 -43 15 C-43 13.68 -43 12.36 -43 11 C-41.03125 9.078125 -41.03125 9.078125 -38.5 7.25 C-37.6646875 6.63640625 -36.829375 6.0228125 -35.96875 5.390625 C-35.3190625 4.93171875 -34.669375 4.4728125 -34 4 C-33.2265625 4.4640625 -33.2265625 4.4640625 -32.4375 4.9375 C-28.69434428 6.56913198 -25.11720309 7.62353031 -21.08007812 6.43457031 C-19.08528579 5.57779395 -17.17202205 4.63415787 -15.25 3.625 C-13.94322019 2.97033145 -12.63594679 2.316647 -11.328125 1.6640625 C-10.22984375 1.11492187 -9.1315625 0.56578125 -8 0 C-4.60398243 -1.13200586 -3.35097244 -1.14423449 0 0 Z " fill="#5BA2E9" transform="translate(243,388)"/>
<path d="M0 0 C2.39873999 0.00851739 4.79509696 -0.02034255 7.19360352 -0.05200195 C16.01149945 -0.09258928 23.39588598 0.49451447 31.46899414 4.44604492 C32.46415039 4.92686523 33.45930664 5.40768555 34.48461914 5.90307617 C46.66287732 13.29093559 54.14703683 23.28549762 57.82772827 37.16125488 C59.04041089 43.37304315 58.91990523 49.6315761 58.90258789 55.93823242 C58.90716328 57.41594682 58.91247281 58.89365911 58.91847229 60.37136841 C58.92735015 63.45250144 58.92504224 66.53337455 58.91503906 69.61450195 C58.90356376 73.52666696 58.92376531 77.43792731 58.9529562 81.34997368 C58.97146842 84.39756798 58.97099609 87.44495151 58.96531868 90.49258804 C58.96516725 91.93322136 58.97106074 93.37387065 58.98361015 94.81444931 C59.10273541 110.72751702 55.31063449 124.2057291 44.46899414 136.13354492 C35.16159846 145.00072594 23.18256545 149.49901814 10.46899414 149.44604492 C10.47787659 150.14904221 10.48675903 150.85203949 10.49591064 151.57633972 C10.57616409 158.2116849 10.63701276 164.84689402 10.67624283 171.48261547 C10.6970899 174.89389491 10.72535311 178.30477226 10.77075195 181.71582031 C10.82265373 185.64016861 10.84196336 189.56435588 10.85961914 193.48901367 C10.88026428 194.71001266 10.90090942 195.93101166 10.92218018 197.18901062 C10.92263336 198.90021843 10.92263336 198.90021843 10.9230957 200.64599609 C10.93197815 201.64749191 10.9408606 202.64898773 10.95001221 203.68083191 C10.33621802 207.20933073 8.92806406 208.89292816 6.46899414 211.44604492 C4.46899414 212.07495117 4.46899414 212.07495117 2.46899414 212.00854492 C1.80899414 212.00983398 1.14899414 212.01112305 0.46899414 212.01245117 C-2.43972724 211.18869219 -3.62861506 209.7705792 -5.53100586 207.44604492 C-6.01202393 204.76312256 -6.01202393 204.76312256 -5.98510742 201.66772461 C-5.9848053 200.50682312 -5.98450317 199.34592163 -5.98419189 198.14984131 C-5.96354675 196.90180725 -5.94290161 195.65377319 -5.92163086 194.36791992 C-5.91597107 193.08620911 -5.91031128 191.80449829 -5.90447998 190.48394775 C-5.88924054 187.08390864 -5.84997502 183.68455799 -5.80566406 180.28479004 C-5.76467385 176.81259473 -5.74646107 173.34028768 -5.72631836 169.86791992 C-5.68347785 163.06034626 -5.61524798 156.25322868 -5.53100586 149.44604492 C-6.62952881 149.45595459 -7.72805176 149.46586426 -8.85986328 149.47607422 C-21.05191629 149.37634538 -32.41516755 143.38517027 -41.13256836 135.17651367 C-48.85792605 126.38168464 -53.74927182 115.94247361 -53.8215332 104.140625 C-53.82825043 103.44686768 -53.83496765 102.75311035 -53.84188843 102.03833008 C-53.86075272 99.76400414 -53.86478716 97.4899753 -53.86694336 95.21557617 C-53.873381 93.61764917 -53.88011006 92.01972332 -53.88711548 90.42179871 C-53.89906059 87.07723259 -53.90279933 83.73276952 -53.90161133 80.38818359 C-53.90140868 76.13284239 -53.92866634 71.87817309 -53.96315575 67.62299061 C-53.98555778 64.32239334 -53.98944478 61.02195414 -53.98839188 57.72128868 C-53.99072959 56.15421937 -53.99944813 54.58714446 -54.01505661 53.02015114 C-54.16167886 36.7754214 -50.43064961 24.78083193 -39.21850586 12.69604492 C-27.75513742 1.8467855 -15.11238629 -0.08173859 0 0 Z " fill="#010101" transform="translate(107.531005859375,300.553955078125)"/>
<path d="M0 0 C1.26908203 -0.03738281 2.53816406 -0.07476562 3.84570312 -0.11328125 C15.02771613 -0.21655279 25.02272251 2.31796332 33.3046875 10.21875 C38.15834889 16.17257464 41.52389144 22.61208898 41.0625 30.375 C40.02609375 30.40078125 38.9896875 30.4265625 37.921875 30.453125 C36.55204199 30.50941951 35.18225195 30.56676655 33.8125 30.625 C33.13058594 30.63917969 32.44867188 30.65335937 31.74609375 30.66796875 C28.33273262 30.83366589 26.36006351 31.15028988 23.60546875 33.23046875 C21.51844135 36.13117265 21.54190331 37.87956508 22.0625 41.375 C23.58943218 43.35046303 24.50838452 44.24897733 26.96362305 44.80737305 C28.00836792 44.84664917 28.00836792 44.84664917 29.07421875 44.88671875 C29.75701904 44.91983154 30.43981934 44.95294434 31.14331055 44.98706055 C32.00351807 45.01195557 32.86372559 45.03685059 33.75 45.0625 C36.493125 45.165625 39.23625 45.26875 42.0625 45.375 C42.0625 54.615 42.0625 63.855 42.0625 73.375 C33.75 73.6875 33.75 73.6875 31.14331055 73.76293945 C30.46051025 73.79605225 29.77770996 73.82916504 29.07421875 73.86328125 C28.02947388 73.90255737 28.02947388 73.90255737 26.96362305 73.94262695 C24.49279 74.50456933 23.57842899 75.36587793 22.0625 77.375 C21.524566 81.90042601 21.524566 81.90042601 23.07421875 86.05078125 C26.20509586 88.13598231 29.60137947 87.95097011 33.25 88.0625 C33.99958984 88.09666016 34.74917969 88.13082031 35.52148438 88.16601562 C37.36796838 88.24834294 39.21520994 88.31335281 41.0625 88.375 C41.50897317 97.17378827 37.71297679 103.75081481 31.9375 110.25 C22.91902805 118.22053273 12.43805522 119.12926008 0.875 118.875 C-0.42630859 118.87757813 -1.72761719 118.88015625 -3.06835938 118.8828125 C-14.75173097 118.76425977 -23.52278838 116.85298013 -31.9375 108.375 C-36.43196096 102.305557 -39.9375 96.05182598 -39.9375 88.375 C-38.82890625 88.34921875 -37.7203125 88.3234375 -36.578125 88.296875 C-35.11454453 88.24058344 -33.65100438 88.18323633 -32.1875 88.125 C-31.45789063 88.11082031 -30.72828125 88.09664063 -29.9765625 88.08203125 C-26.46722223 87.92251578 -24.29499478 87.63328305 -21.41796875 85.5546875 C-19.59041962 83.31422988 -19.59041962 83.31422988 -20 79.75 C-20.6125845 76.11983076 -20.6125845 76.11983076 -23.9375 74.375 C-26.6985633 74.07358629 -29.35823037 73.86642006 -32.125 73.75 C-34.703125 73.62625 -37.28125 73.5025 -39.9375 73.375 C-39.9375 64.135 -39.9375 54.895 -39.9375 45.375 C-31.625 45.125 -31.625 45.125 -29.01831055 45.07714844 C-24.52656622 44.9454325 -24.52656622 44.9454325 -20.91796875 42.48828125 C-19.69969513 39.86244049 -19.4971587 38.23721842 -19.9375 35.375 C-21.46986539 33.42404871 -22.39600177 32.49815312 -24.83862305 31.94262695 C-25.53511963 31.91644287 -26.23161621 31.89025879 -26.94921875 31.86328125 C-27.70654297 31.82783203 -28.46386719 31.79238281 -29.24414062 31.75585938 C-30.02982422 31.73330078 -30.81550781 31.71074219 -31.625 31.6875 C-32.42228516 31.65333984 -33.21957031 31.61917969 -34.04101562 31.58398438 C-36.00601904 31.50161896 -37.97173696 31.43662933 -39.9375 31.375 C-39.00053149 21.97541164 -36.03078711 14.4718911 -28.97265625 7.91015625 C-19.7738567 0.97133049 -11.17649998 0.12154375 0 0 Z " fill="#CFC7CD" transform="translate(108.9375,315.625)"/>
<path d="M0 0 C9.27800202 1.75479314 9.27800202 1.75479314 13.3125 3.125 C22.89152878 5.39798988 32.15257632 3.84322642 41.58984375 1.75390625 C44.71732516 1.06249283 47.83664069 0.49744429 51 0 C51.08636719 1.30453125 51.17273438 2.6090625 51.26171875 3.953125 C52.30956659 17.71749608 54.41693054 28.42096539 63.546875 39.2578125 C65 41 65 41 66 43 C57.8758668 54.27847542 48.43346594 61.59227709 34.75 64.75 C19.11301247 65.79246584 7.34818233 64.25562123 -5 54 C-12.77250365 47.02300428 -12.77250365 47.02300428 -15 42 C-14.56429687 41.56171875 -14.12859375 41.1234375 -13.6796875 40.671875 C-6.67382917 33.21109081 -1.20356854 24.07137082 -0.68359375 13.671875 C-0.64169922 12.87265625 -0.59980469 12.0734375 -0.55664062 11.25 C-0.51732422 10.425 -0.47800781 9.6 -0.4375 8.75 C-0.39431641 7.90953125 -0.35113281 7.0690625 -0.30664062 6.203125 C-0.20091457 4.13559329 -0.09998705 2.06781719 0 0 Z " fill="#F7C2A8" transform="translate(269,336)"/>
<path d="M0 0 C5.94 0.66 11.88 1.32 18 2 C26.54393835 27.63181506 24.33772261 67.7180168 12.84375 92.4921875 C10.61908761 96.35528367 7.94225223 98.9779341 4.625 101.9375 C1.66188117 104.69875889 1.66188117 104.69875889 0.7109375 108.50390625 C0.97164473 110.75514841 1.35678861 112.82916155 2 115 C0.26041859 116.20271059 -1.49209745 117.3867301 -3.25 118.5625 C-4.22453125 119.22378906 -5.1990625 119.88507813 -6.203125 120.56640625 C-9 122 -9 122 -11.296875 121.77734375 C-13 121 -13 121 -14 120 C-20.34241506 119.48929411 -24.08421055 120.54895883 -29.5625 123.625 C-30.95578433 124.36419965 -32.35169115 125.0984746 -33.75 125.828125 C-34.45253906 126.19486328 -35.15507812 126.56160156 -35.87890625 126.93945312 C-39.20174883 128.60087441 -42.6094909 130.00915664 -46.0625 131.375 C-47.81240234 132.06722656 -47.81240234 132.06722656 -49.59765625 132.7734375 C-53.04261894 134.01536435 -56.46885132 135.03736839 -60 136 C-60 135.34 -60 134.68 -60 134 C-59.00742187 133.5153125 -58.01484375 133.030625 -56.9921875 132.53125 C-23.09179742 116.37420851 -23.09179742 116.37420851 -2.3125 86.8125 C2.33341405 73.08662365 2.3167194 59.3546917 2.26074219 45.01806641 C2.25006892 41.77096684 2.26065952 38.52442602 2.2734375 35.27734375 C2.28027404 23.33391231 1.67473119 11.82945049 0 0 Z " fill="#E59A80" transform="translate(371,187)"/>
<path d="M0 0 C1.73443359 0.03383789 1.73443359 0.03383789 3.50390625 0.06835938 C6.33730434 0.12690066 9.16795364 0.20884965 12 0.3125 C11.98952637 1.45501221 11.97905273 2.59752441 11.96826172 3.7746582 C11.93140014 8.11170171 11.90886526 12.44873219 11.89013672 16.78588867 C11.88022681 18.64463649 11.86669502 20.50336939 11.84912109 22.36206055 C11.73137426 35.15837106 12.37971069 47.6159714 14 60.3125 C10.00025019 60.42960979 6.00094719 60.50005489 2 60.5625 C0.87464844 60.59601563 -0.25070313 60.62953125 -1.41015625 60.6640625 C-8.8961288 60.75161773 -14.86968573 60.16395483 -20.51513672 54.8996582 C-26.74990879 47.90932578 -26.40278799 40.55822251 -26.42553711 31.70288086 C-26.43741166 29.51626761 -26.48661547 27.33250116 -26.53710938 25.14648438 C-26.69692892 12.04783968 -26.69692892 12.04783968 -22.57836914 6.85546875 C-15.59258092 0.02636101 -9.58762778 -0.35692772 0 0 Z " fill="#5BA1E7" transform="translate(171,202.6875)"/>
<path d="M0 0 C4.16612708 -0.17553906 8.33129322 -0.28127105 12.5 -0.375 C13.67304688 -0.42527344 14.84609375 -0.47554687 16.0546875 -0.52734375 C22.74072791 -0.64002982 27.13412792 -0.26661444 32.33398438 4.11474609 C36.83494494 9.20800774 38.60599898 13.02369655 38.49609375 19.8125 C38.49754898 20.5444458 38.49900421 21.2763916 38.50050354 22.03051758 C38.49885166 23.57019044 38.48737032 25.10988105 38.46655273 26.64941406 C38.43757961 28.99355886 38.44596078 31.33544016 38.45898438 33.6796875 C38.45274618 35.18230255 38.44435459 36.68491053 38.43359375 38.1875 C38.43652939 38.88141846 38.43946503 39.57533691 38.44248962 40.2902832 C38.33842541 45.71236334 37.00360961 49.77798745 33.3515625 53.828125 C32.78179687 54.29734375 32.21203125 54.7665625 31.625 55.25 C31.06039062 55.72953125 30.49578125 56.2090625 29.9140625 56.703125 C25.72138241 59.54387968 22.06006383 60.24676989 17.04296875 60.1953125 C15.93115234 60.18886719 14.81933594 60.18242187 13.67382812 60.17578125 C12.52333984 60.15902344 11.37285156 60.14226562 10.1875 60.125 C9.01767578 60.11597656 7.84785156 60.10695313 6.64257812 60.09765625 C3.76150947 60.07413732 0.88086011 60.04126852 -2 60 C-1.8570752 59.18909912 -1.71415039 58.37819824 -1.56689453 57.54272461 C0.30816364 45.54317114 0.22684776 33.68334425 0.125 21.5625 C0.11494395 19.46289492 0.10582277 17.36328515 0.09765625 15.26367188 C0.07586496 10.17566299 0.04148166 5.08788488 0 0 Z " fill="#5BA1E7" transform="translate(406,203)"/>
<path d="M0 0 C23.28254271 2.2321479 44.11057988 19.40709233 58.91015625 36.34765625 C73.42444899 54.76859974 80.20634182 75.86742543 80.09765625 99.05859375 C80.0962413 100.20288345 80.09482635 101.34717316 80.09336853 102.52613831 C80.08779301 106.16328601 80.07524498 109.80037105 80.0625 113.4375 C80.05748184 115.9108064 80.05291948 118.38411377 80.04882812 120.85742188 C80.03783159 126.90497188 80.02058381 132.95247533 80 139 C76.04 139 72.08 139 68 139 C67.57682292 136.49348958 67.15364583 133.98697917 66.73046875 131.48046875 C66.21720353 128.9612857 66.21720353 128.9612857 64.47839355 127.58087158 C61.90350375 124.82749776 62.58042559 121.06730927 62.59375 117.484375 C62.58291382 116.63635315 62.57207764 115.7883313 62.56091309 114.91461182 C62.52662564 112.19299878 62.51108382 109.47180037 62.5 106.75 C62.36161868 73.56254922 52.8441539 45.51575344 29.6875 21.25 C20.93909015 12.77304998 10.82326449 6.53092674 0 1 C0 0.67 0 0.34 0 0 Z " fill="#8C3937" transform="translate(336,49)"/>
<path d="M0 0 C9.44405594 1.81118881 9.44405594 1.81118881 13.3125 3.125 C22.89152878 5.39798988 32.15257632 3.84322642 41.58984375 1.75390625 C44.71732516 1.06249283 47.83664069 0.49744429 51 0 C51.08636719 1.30453125 51.17273438 2.6090625 51.26171875 3.953125 C52.30956659 17.71749608 54.41693054 28.42096539 63.546875 39.2578125 C65 41 65 41 66 43 C65.01 43.99 64.02 44.98 63 46 C52.65497446 40.48265305 44.17660452 34.78459276 39 24 C39 23.34 39 22.68 39 22 C38.33742188 22.15855469 37.67484375 22.31710937 36.9921875 22.48046875 C24.90381345 24.57936398 11.09060425 23.54530213 0 18 C0 12.06 0 6.12 0 0 Z " fill="#E49980" transform="translate(269,336)"/>
<path d="M0 0 C1.96259843 1.64644764 3.63833222 3.38129149 5.32421875 5.30859375 C8.4652158 8.47887749 11.34807313 9.30490562 15.75 9.375 C20.90275307 9.26100104 24.82618843 8.04971712 29 5 C29.680625 4.113125 30.36125 3.22625 31.0625 2.3125 C33 0 33 0 36.4375 -1.0625 C40 -1 40 -1 42.9375 0.5 C45 3 45 3 45.75 6.25 C44.52391464 12.38042678 40.82131336 16.09669491 35.70703125 19.546875 C33.50165155 20.80287014 31.30902796 21.94747489 29 23 C28.23042969 23.36351562 27.46085937 23.72703125 26.66796875 24.1015625 C18.65431392 26.80015783 9.87307242 25.92935152 2.375 22.25 C-3.67380168 18.89520243 -8.80361342 15.26983521 -12 9 C-12 5.16959388 -11.81012502 2.99707694 -9.375 0 C-5.73258424 -1.53364874 -3.77593248 -1.1519794 0 0 Z " fill="#050403" transform="translate(278,254)"/>
<path d="M0 0 C6.37333056 1.12169874 11.70139535 2.96714614 17.375 6.0625 C18.11032959 6.45880615 18.84565918 6.8551123 19.60327148 7.26342773 C26.02138777 10.82436091 31.60890801 15.01122831 37 20 C37.72574219 20.65742188 38.45148438 21.31484375 39.19921875 21.9921875 C49.52043119 31.78259473 57.53237018 45.46104059 62 59 C62 60.65 62 62.3 62 64 C57.38 64 52.76 64 48 64 C46.9790625 60.720625 46.9790625 60.720625 45.9375 57.375 C38.51378284 34.72632929 24.45238382 16.72781962 4.6171875 3.7421875 C2 2 2 2 0 0 Z " fill="#3181C3" transform="translate(350,388)"/>
<path d="M0 0 C7.26 0 14.52 0 22 0 C22 9.9 22 19.8 22 30 C14.74 30 7.48 30 0 30 C0 20.1 0 10.2 0 0 Z " fill="#DD957C" transform="translate(394,467)"/>
<path d="M0 0 C6.93 0 13.86 0 21 0 C21 9.9 21 19.8 21 30 C14.07 30 7.14 30 0 30 C0 20.1 0 10.2 0 0 Z " fill="#F5C1A7" transform="translate(174,467)"/>
<path d="M0 0 C5.28 0 10.56 0 16 0 C16 9.24 16 18.48 16 28 C10.72 28 5.44 28 0 28 C0 18.76 0 9.52 0 0 Z " fill="#B0A7AE" transform="translate(135,361)"/>
<path d="M0 0 C4.95 0 9.9 0 15 0 C15 9.05088428 11.86522559 15.13415646 5.875 21.875 C0.95111841 26.43618495 -6.13409173 29.82619213 -12.8671875 30.12890625 C-13.57101563 30.08636719 -14.27484375 30.04382813 -15 30 C-14.13375 29.05125 -13.2675 28.1025 -12.375 27.125 C-5.27985075 18.83611711 -1.54165659 10.79159611 0 0 Z " fill="#B5ACB3" transform="translate(135,404)"/>
<path d="M0 0 C9.11492319 0.35057397 17.73849542 4.07969937 24 10.8125 C28.82642918 16.98419305 31 22.13628406 31 30 C26.05 30 21.1 30 16 30 C15.608125 28.205625 15.21625 26.41125 14.8125 24.5625 C12.32141887 14.63326112 7.41061703 7.02058456 0 0 Z " fill="#B4ABB2" transform="translate(119,316)"/>
<path d="M0 0 C4.07865638 0.65549835 5.01316289 1.35212193 7.5 4.5625 C8.03125 7.4375 8.03125 7.4375 8 10.5625 C8.0103125 11.59375 8.020625 12.625 8.03125 13.6875 C7.3771841 17.22715076 6.3398297 18.4072721 3.5 20.5625 C0 21.125 0 21.125 -3.5 20.5625 C-6.34142547 18.3767881 -7.31568909 16.72156862 -7.87890625 13.1796875 C-8.07260706 8.99325071 -7.82855364 6.21960727 -5.9375 2.4375 C-3.5 0.5625 -3.5 0.5625 0 0 Z " fill="#060504" transform="translate(339.5,205.4375)"/>
<path d="M0 0 C2.4375 1.3125 2.4375 1.3125 4 4 C4.88324196 9.41610635 4.96423078 13.55365383 1.875 18.1875 C-1.52518929 20.3310976 -3.06386313 20.83747593 -7 20 C-9.93339092 17.76135956 -10.85474685 16.00195031 -11.3828125 12.359375 C-11.55297086 8.11675983 -11.59744648 5.02760795 -9.4375 1.3125 C-6.03362851 -0.52035388 -3.80853299 -0.54407614 0 0 Z " fill="#050303" transform="translate(253,206)"/>
<path d="M0 0 C2.31 0 4.62 0 7 0 C7 9.57 7 19.14 7 29 C4.69 29 2.38 29 0 29 C0 19.43 0 9.86 0 0 Z " fill="#F4C0A6" transform="translate(394,468)"/>
<path d="M0 0 C4.99268902 1.47931526 4.99268902 1.47931526 6.375 4 C7.12971698 10.79245283 7.12971698 10.79245283 4.8125 14.5 C1.39967068 16.60020266 -0.69188873 16.63210717 -4.625 16 C-7.5486459 13.4511805 -8.47409176 11.80484394 -9.1875 8 C-8.16441035 2.54352187 -5.57571613 0 0 0 Z " fill="#080808" transform="translate(110.625,367)"/>
<path d="M0 0 C2.203125 0.8828125 2.203125 0.8828125 3.203125 1.8828125 C3.79563973 6.00647559 3.47940631 7.50782473 0.97265625 10.91015625 C0.00271044 11.89593791 -0.98362886 12.86581393 -1.984375 13.8203125 C-2.46712891 14.32626953 -2.94988281 14.83222656 -3.44726562 15.35351562 C-4.90234375 16.78515625 -4.90234375 16.78515625 -7.796875 18.8828125 C-11.27301788 18.80842998 -12.33405497 18.34563253 -14.796875 15.8828125 C-14.69505211 10.97834311 -11.85533639 8.27308249 -8.546875 5.0078125 C-8.06863281 4.49734375 -7.59039062 3.986875 -7.09765625 3.4609375 C-3.49982812 -0.14664084 -3.49982812 -0.14664084 0 0 Z " fill="#454C6D" transform="translate(399.796875,330.1171875)"/>
<path d="M0 0 C2 1 2 1 3.125 3.8125 C4 7 4 7 4 11 C2.68 11 1.36 11 0 11 C0 7.37 0 3.74 0 0 Z " fill="#559BE0" transform="translate(394,441)"/>
<path d="M0 0 C0.66 0.33 1.32 0.66 2 1 C-0.31 3.64 -2.62 6.28 -5 9 C-5.66 8.67 -6.32 8.34 -7 8 C-5.50902342 4.2047869 -3.24299151 2.38957269 0 0 Z " fill="#84AACF" transform="translate(206,394)"/>
</svg>
